<svg width="12" height="6" viewBox="0 0 12 6" fill="none" xmlns="http://www.w3.org/2000/svg">
<path d="M1.04139 0.660306C1.11953 0.583987 1.22442 0.54126 1.33364 0.54126C1.44286 0.54126 1.54776 0.583987 1.62589 0.660306L6.00001 4.92418L10.3733 0.660306C10.4514 0.583987 10.5563 0.54126 10.6655 0.54126C10.7747 0.54126 10.8796 0.583987 10.9578 0.660306C10.9959 0.697403 11.0261 0.741756 11.0468 0.790749C11.0675 0.839741 11.0781 0.892379 11.0781 0.945556C11.0781 0.998733 11.0675 1.05137 11.0468 1.10036C11.0261 1.14936 10.9959 1.19371 10.9578 1.23081L6.30539 5.76506C6.22368 5.84469 6.1141 5.88926 6.00001 5.88926C5.88592 5.88926 5.77634 5.84469 5.69464 5.76506L1.04227 1.23081C1.00417 1.19371 0.973883 1.14936 0.953206 1.10036C0.932528 1.05137 0.921875 0.998733 0.921875 0.945556C0.921875 0.892379 0.932528 0.839741 0.953206 0.790749C0.973883 0.741756 1.00417 0.697403 1.04227 0.660306H1.04139Z" fill="white"/>
</svg>
